# xmcd
#
# Track frame offsets: 
#        150
#        16507
#        38790
#        59039
#        71696
#        100835
#        115169
#        131802
#        156020
#        170391
#        190674
#        214636
#        246458
#
# Disc length: 3538 seconds
#
# Revision: 0
# Processed by: cddbd v1.5.2PL0 Copyright (c) Steve Scherf et al.
# Submitted via: ExactAudioCopy v1.3
#
DISCID=b10dd00d
DTITLE=JP Soars - More Bees With Honey
DYEAR=2011
DGENRE=Electric Blues
TTITLE0=More Bees Wyth Honey
TTITLE1=K.Y.N.O.B.
TTITLE2=So Many Times
TTITLE3=Hot Little Woman
TTITLE4=Doggin'
TTITLE5=Back Of My Mind
TTITLE6=The Hustle Is On
TTITLE7=Lost It All
TTITLE8=Twitchin'
TTITLE9=Sweet Blood Call
TTITLE10=They'll Do It Every Time
TTITLE11=Chasing Whiskey With Whiskey
TTITLE12=Where'd You Stay Last Night
EXTD=
EXTT0=
EXTT1=
EXTT2=
EXTT3=
EXTT4=
EXTT5=
EXTT6=
EXTT7=
EXTT8=
EXTT9=
EXTT10=
EXTT11=
EXTT12=
PLAYORDER=
